<svg viewBox="0 0 1024 1024" xmlns="http://www.w3.org/2000/svg"><path d="M513.536 20.48c-271.872 0-492.032 220.16-492.032 492.032s220.16 492.032 492.032 492.032c271.872 0 492.032-220.16 492.032-492.032S785.408 20.48 513.536 20.48zM281.6 271.36h465.92v51.2H281.6v-51.2zm424.96 107.52v204.8h-384v-204.8h384zM266.24 752.64v-51.2h144.384c-13.312-25.6-30.208-56.832-51.2-89.088l51.2-20.48c20.48 30.208 38.4 68.608 54.784 109.568h97.28c19.456-30.72 36.352-69.12 50.688-109.056l55.808 20.48c-14.848 33.792-30.208 63.488-47.104 89.088h135.168v51.2H266.24zm112.64-322.56h276.48v102.4H378.88z"/></svg>