<svg viewBox="0 0 1024 1024" xmlns="http://www.w3.org/2000/svg"><path d="M806.6 426.53c13.95 0 25.2 11.4 25.2 25.23 0 13.8-11.25 25.2-25.2 25.2h-70.2v45h70.2a25.2 25.2 0 110 50.37h-95.43a25.23 25.23 0 01-25.08-25.17V356.33c0-13.8 11.28-25.2 25.2-25.2h95.43a25.23 25.23 0 01-.12 50.4h-70.2v45h70.2zM652.4 547.16a25.2 25.2 0 01-25.23 25.08 24.78 24.78 0 01-20.4-9.99l-97.71-132.69v117.6a25.2 25.2 0 01-25.23 25.17 25.2 25.2 0 01-25.05-25.17V356.33a25.05 25.05 0 0124.96-25.11c7.8 0 15 4.17 19.8 10.17l98.49 133.2V356.36c0-13.8 11.28-25.2 25.2-25.2 13.8 0 25.2 11.4 25.2 25.2v190.83zm-229.65 0a25.26 25.26 0 01-25.23 25.17 25.23 25.23 0 01-25.08-25.17V356.33c0-13.8 11.28-25.2 25.2-25.2 13.83 0 25.11 11.4 25.11 25.2v190.83zm-98.64 25.17h-95.43c-13.8 0-25.2-11.4-25.2-25.17V356.33c0-13.8 11.4-25.2 25.2-25.2 13.92 0 25.2 11.4 25.2 25.2v165.63h70.23a25.2 25.2 0 010 50.37zM992 444.56c0-214.83-215.4-389.67-480-389.67S32 229.73 32 444.56c0 192.45 170.79 353.67 401.4 384.33 15.63 3.27 36.93 10.32 42.33 23.61 4.8 12.03 3.15 30.63 1.53 43.2l-6.57 40.8c-1.8 12.03-9.6 47.43 41.97 25.8 51.63-21.57 276.63-163.11 377.43-279C959.06 607.73 992 530.33 992 444.59z"/></svg>