<svg viewBox="0 0 1024 1024" xmlns="http://www.w3.org/2000/svg"><path d="M927.742 687.747c-6.87-94.604-70.349-173.86-107.044-214.854 5.094-11.926 17.49-80.957-30.374-128.058.077-1.13.077-2.25.077-3.347 0-185.805-132.253-319.547-298.196-320.155-165.971.61-298.218 134.35-298.218 320.155 0 1.097-.015 2.217.064 3.347-47.864 47.101-35.445 116.132-30.375 128.058-36.67 40.993-100.157 120.25-107.041 214.854-1.24 24.868 2.605 61.095 14.754 77.194 14.802 19.634 55.433-3.94 84.49-66.667 8.084 29.06 26.743 73.421 68.966 129.728-70.66 16.126-90.814 85.817-67.044 123.912 16.765 26.845 55.149 48.924 121.298 48.924 117.69 0 169.667-31.63 192.863-53.657 4.726-4.804 11.547-7.12 20.243-7.139 8.668.018 15.503 2.335 20.215 7.14 23.198 22.025 75.184 53.656 192.848 53.656 66.172 0 104.53-22.08 121.295-48.924 23.778-38.093 3.627-107.787-67.013-123.912 42.222-56.309 60.884-100.669 68.965-129.729 29.064 62.726 69.687 86.3 84.504 66.667 12.136-16.1 15.986-52.326 14.723-77.194"/></svg>