<svg viewBox="0 0 1024 1024" xmlns="http://www.w3.org/2000/svg"><path d="M403 611c-27.6 0-49.8-22.2-49.8-49.2 0-27.6 22.2-49.8 49.8-49.8 27.2 0 49.2 22.2 49.2 49.8C452.2 589 430 611 403 611zm605-99c0 274-222 496-496 496S16 786 16 512 238 16 512 16s496 222 496 496zm-264.6-82.4c-18.8 0-35.4 7.8-47.6 20-44.8-31-105.2-51-172.2-53.2l34.8-156.6 110.8 25c0 27.2 22.2 49.2 49.2 49.2 27.6 0 49.8-22.6 49.8-49.8s-22.2-49.8-49.8-49.8c-19.4 0-36 11.6-44.2 27.6l-122.4-27.2c-6-1.6-12.2 2.8-13.8 8.8l-38.2 172.8c-66.4 2.8-126.2 22.6-171 53.6-12.2-12.8-29.4-20.4-48.2-20.4-69.8 0-92.6 93.8-28.8 125.6-2.2 10-3.4 20.4-3.4 31 0 105.2 118.4 190.4 264 190.4 146.2 0 264.6-85.2 264.6-190.4 0-10.6-1.2-21.6-3.8-31.6 62.6-32 39.6-125-29.8-125zM605.6 662c-36.4 36.4-152.2 35.8-187.2 0-4.4-4.4-12.2-4.4-16.6 0-5 5-5 12.8 0 17.2 45.6 45.6 174.6 45.6 220.4 0 5-4.4 5-12.2 0-17.2-4.4-4.4-12.2-4.4-16.6 0zM621 512c-27.2 0-49.2 22.2-49.2 49.8C571.8 589 594 611 621 611c27.6 0 49.8-22.2 49.8-49.2 0-27.6-22-49.8-49.8-49.8z"/></svg>