<svg viewBox="0 0 1024 1024" xmlns="http://www.w3.org/2000/svg"><path d="M743.386 607.455q0-28.57-11.143-52.282t-27.712-39.14-41.712-27.999-47.14-19.427-49.996-13.142l-59.425-13.713q-17.142-4-25.141-6t-19.999-6.571-17.142-9.142-9.428-12-4.285-17.141q0-43.998 82.28-43.998 24.57 0 43.997 6.857t30.856 16.285 21.712 19.141 22.856 16.57 27.427 6.858q26.855 0 43.14-18.285t16.285-43.997q0-31.427-31.998-56.854t-81.138-38.569-103.993-13.142q-38.855 0-75.424 8.857t-68.281 26.855-50.854 49.711-19.142 73.424q0 34.855 10.857 60.854t31.998 43.14 45.71 27.712 58.854 18.57l83.424 20.57q51.425 12.571 63.995 20.57 18.285 11.428 18.285 34.284 0 22.284-22.856 36.855t-59.996 14.57q-29.14 0-52.282-9.142t-37.14-21.998-25.999-25.713-26.284-21.999-30.855-9.142q-28.57 0-43.14 17.142t-14.57 42.854q0 52.568 69.709 89.994t166.275 37.427q41.712 0 79.995-10.571t69.995-30.57 50.569-53.425 18.856-75.138zM950.8 731.447q0 90.852-64.282 155.133t-155.133 64.282q-74.28 0-133.705-45.712-43.998 9.143-85.71 9.143-81.708 0-156.275-31.713t-128.563-85.708-85.709-128.564-31.712-156.275q0-41.712 9.142-85.709-45.711-59.425-45.711-133.706 0-90.851 64.281-155.133t155.133-64.281q74.281 0 133.706 45.711 43.997-9.142 85.709-9.142 81.709 0 156.276 31.712t128.563 85.709 85.709 128.563 31.712 156.276q0 41.711-9.142 85.709 45.71 59.424 45.71 133.705z"/></svg>