<svg viewBox="0 0 1024 1024" xmlns="http://www.w3.org/2000/svg"><path d="M992.305 214.553q-40.838 59.733-98.743 101.79.61 8.533.61 25.6 0 79.238-23.163 158.171t-70.4 151.467-112.456 128.305-157.258 88.99-196.876 33.219q-165.18 0-302.324-88.38 21.333 2.438 47.543 2.438 137.143 0 244.42-84.115-64-1.219-114.591-39.314t-69.486-97.219q20.114 3.048 37.18 3.048 26.21 0 51.81-6.706-68.266-14.019-113.066-67.961t-44.8-125.258v-2.437q41.448 23.162 88.99 24.99-40.228-26.82-64-70.095t-23.77-93.867q0-53.638 26.817-99.352 73.753 90.819 179.505 145.371t226.439 60.648q-4.877-23.162-4.877-45.105 0-81.676 57.6-139.276t139.277-57.6q85.333 0 143.847 62.17 66.439-12.8 124.953-47.542-22.553 70.095-86.553 108.495 56.686-6.095 113.372-30.475z"/></svg>