<svg viewBox="0 0 1024 1024" xmlns="http://www.w3.org/2000/svg"><path d="M303.875 308.094c0-12.797-3.89-23.11-11.719-30.938-7.828-7.828-18.14-11.719-30.937-11.719-13.453 0-25.313 3.985-35.625 11.954s-15.469 18.187-15.469 30.703c0 12.187 5.156 22.265 15.469 30.234s22.172 11.953 35.625 11.953c12.797 0 23.11-3.844 30.937-11.484 7.828-7.64 11.719-17.906 11.719-30.703zM652.156 545.75c0-8.766-3.984-16.547-11.953-23.438S622.016 512 609.5 512c-8.438 0-16.172 3.516-23.203 10.547s-10.547 14.765-10.547 23.203c0 8.766 3.516 16.64 10.547 23.672s14.765 10.547 23.203 10.547c12.516 0 22.734-3.422 30.703-10.313s11.953-14.86 11.953-23.906zM541.531 308.094c0-12.797-3.843-23.11-11.484-30.938-7.64-7.828-17.906-11.719-30.703-11.719-13.453 0-25.313 3.985-35.625 11.954s-15.469 18.187-15.469 30.703c0 12.187 5.156 22.265 15.469 30.234s22.172 11.953 35.625 11.953c12.797 0 23.062-3.844 30.703-11.484 7.64-7.64 11.484-17.906 11.484-30.703zM839.188 545.75c0-8.766-4.079-16.547-12.188-23.438S808.719 512 796.531 512c-8.437 0-16.172 3.516-23.203 10.547s-10.547 14.765-10.547 23.203c0 8.766 3.516 16.64 10.547 23.672s14.766 10.547 23.203 10.547c12.188 0 22.36-3.422 30.469-10.313 8.11-6.89 12.188-14.86 12.188-23.906zM714.5 359.656c-9.703-1.265-20.625-1.875-32.813-1.875-52.828 0-101.39 12.047-145.78 36.094S456.593 450.5 431.14 491.609s-38.204 86.016-38.204 134.766c0 24.375 3.61 48.14 10.782 71.25-10.922.938-21.563 1.406-31.875 1.406-8.11 0-15.938-.234-23.438-.703s-16.078-1.5-25.781-3.047-16.64-2.672-20.86-3.281-12.75-2.25-25.546-4.922-20.625-4.312-23.438-4.922l-118.594 59.532 33.75-102.188C77.329 576.078 32 499.484 32 409.812c0-52.828 15.234-101.39 45.703-145.78s71.719-79.313 123.75-104.766 108.844-38.203 170.39-38.203c54.985 0 106.97 10.312 155.86 30.937s89.86 49.125 122.813 85.547 54.28 77.11 63.984 122.11zM992 622.625c0 36.563-10.688 71.484-32.11 104.766s-50.39 63.515-86.952 90.703l25.78 84.843-93.28-51.093c-46.875 11.578-80.954 17.343-102.188 17.343-52.828 0-101.39-11.015-145.781-33.046s-79.313-51.938-104.766-89.766-38.203-79.078-38.203-123.75 12.75-85.922 38.203-123.75 60.375-67.734 104.766-89.766 92.953-33.046 145.781-33.046c50.297 0 97.64 11.015 142.031 33.046s79.922 52.032 106.64 90S992 578.234 992 622.625z"/></svg>