<svg viewBox="0 0 1025 1024" xmlns="http://www.w3.org/2000/svg"><path d="M393.607 719.857q11.25-18.214 5.893-36.964t-24.107-26.786q-18.215-7.5-39.108-.535t-32.142 24.643q-11.786 18.213-6.965 36.695t23.037 27.055 39.91 1.338 33.482-25.446zm50.358-64.822q4.285-6.963 1.875-14.195t-9.375-9.912q-7.5-2.678-15.268 2.679t-11.519 9.911q-9.106 16.607 6.965 24.107 7.5 2.678 15.535 2.678t11.787-9.91zm93.213 57.322Q513.072 767 452.535 792.716t-120 6.428q-57.32-18.216-79.017-67.769T257 630.928q25.178-49.821 81.16-74.463t112.768-10.18q59.465 15.537 84.912 64.018t1.338 102.054zm167.144-85.714q-4.822-51.428-47.679-91.071t-111.696-58.394-147.054-11.25q-119.465 12.322-197.946 75.804t-70.982 141.696q4.82 51.429 47.678 91.072t111.697 58.393 147.053 11.25q119.464-12.321 197.947-75.803t70.982-141.697zm165 2.142q0 36.43-19.822 74.733t-58.393 73.392-90.267 62.947-121.072 44.465-144.911 16.606-147.322-17.946-128.838-49.822-91.875-80.892T32 645.393q0-61.608 37.232-131.25t105.803-138.215q90.537-90.535 182.947-126.428t132.053 3.75q34.822 34.285 10.715 111.965-2.143 7.5-.535 10.713t5.357 3.75 7.768 2.679 7.232-1.875l3.213-1.072q74.465-31.607 131.787-31.607t81.963 32.679q24.108 33.75 0 95.358-1.07 6.963-2.41 10.713t2.41 6.697 6.43 4.018 9.107 3.214q30.535 9.643 55.178 25.178t42.857 43.662 18.215 62.41zM829.678 294.5q22.5 25.178 29.197 58.125t-3.482 62.947q-4.286 12.321-15.803 18.213t-23.84 2.143q-12.322-4.285-18.215-15.803t-2.142-23.84q10.714-33.75-12.858-59.463t-57.32-18.75q-12.858 2.678-24.108-4.287t-13.391-19.82q-2.682-12.858 4.284-23.84t19.822-13.66q32.143-6.965 63.75 2.945t54.106 35.09zm96.965-87.322q46.607 51.429 60.266 119.197t-7.232 129.375q-4.821 14.465-18.213 21.428t-27.858 2.144-21.429-18.215-2.677-27.857q15-43.928 5.357-92.143T872 256.466q-33.215-36.966-79.285-51.163t-92.68-4.553q-15 3.215-27.858-5.09t-16.071-23.303 5.09-27.589 23.304-15.803q65.893-13.93 130.715 6.16t111.428 72.053z"/></svg>